{
  "accessors": [
    {
      "bufferView": 3,
      "componentType": 5126,
      "count": 1300,
      "max": [
        0.13051281869411469,
        0.26358455419540405,
        0.022250289097428322
      ],
      "min": [
        -0.1089252457022667,
        -0.10652276128530502,
        -0.15759749710559845
      ],
      "type": "VEC3"
    },
    {
      "bufferView": 3,
      "byteOffset": 15600,
      "componentType": 5126,
      "count": 1300,
      "max": [
        0.9994043111801147,
        0.9998594522476196,
        0.9995916485786438
      ],
      "min": [
        -0.999913215637207,
        -0.9997698664665222,
        -0.9999145269393921
      ],
      "type": "VEC3"
    },
    {
      "bufferView": 2,
      "componentType": 5126,
      "count": 1300,
      "max": [
        0.98388671875,
        0.97265625
      ],
      "min": [
        0.0197906494140625,
        0.0187835693359375
      ],
      "type": "VEC2"
    },
    {
      "bufferView": 1,
      "componentType": 5125,
      "count": 6330,
      "type": "SCALAR"
    },
    {
      "bufferView": 5,
      "componentType": 5126,
      "count": 10,
      "max": [
        1.0,
        1.869632448858738e-08,
        0.3420201539993286,
        0.0,
        2.1396287408492753e-08,
        1.0,
        3.82379568009128e-08,
        0.0,
        0.3420201539993286,
        2.3283059036316445e-08,
        1.0000001192092896,
        0.0,
        0.08394257724285126,
        0.2380705326795578,
        0.15102994441986084,
        1.0
      ],
      "min": [
        0.9396925568580627,
        -4.6566128730773926e-08,
        -0.3420201241970062,
        0.0,
        -4.656613938891496e-08,
        -1.0,
        -2.3283064365386963e-08,
        0.0,
        -0.342020183801651,
        -3.83082081611974e-08,
        -1.0,
        0.0,
        -0.10369060188531876,
        -0.2380705177783966,
        -0.1430555284023285,
        1.0
      ],
      "type": "MAT4"
    },
    {
      "bufferView": 0,
      "componentType": 5123,
      "count": 1300,
      "type": "VEC4"
    },
    {
      "bufferView": 4,
      "componentType": 5126,
      "count": 1300,
      "max": [
        1.0,
        0.46504101157188416,
        0.027066608890891075,
        0.0
      ],
      "min": [
        0.5349590182304382,
        0.0,
        0.0,
        0.0
      ],
      "type": "VEC4"
    }
  ],
  "asset": {
    "extras": {
      "author": "Harlie/Kaeul (https://sketchfab.com/harleymh)",
      "license": "CC-BY-4.0 (http://creativecommons.org/licenses/by/4.0/)",
      "source": "https://sketchfab.com/3d-models/scout-slingshot-from-secret-neighbor-424df49ef1334360a9490da34c72b522",
      "title": "Scout Slingshot from secret neighbor"
    },
    "generator": "Sketchfab-12.68.0",
    "version": "2.0"
  },
  "bufferViews": [
    {
      "buffer": 0,
      "byteLength": 10400,
      "byteStride": 8,
      "name": "shortBufferViews",
      "target": 34962
    },
    {
      "buffer": 0,
      "byteLength": 25320,
      "byteOffset": 10400,
      "name": "floatBufferViews",
      "target": 34963
    },
    {
      "buffer": 0,
      "byteLength": 10400,
      "byteOffset": 35720,
      "byteStride": 8,
      "name": "floatBufferViews",
      "target": 34962
    },
    {
      "buffer": 0,
      "byteLength": 31200,
      "byteOffset": 46120,
      "byteStride": 12,
      "name": "floatBufferViews",
      "target": 34962
    },
    {
      "buffer": 0,
      "byteLength": 20800,
      "byteOffset": 77320,
      "byteStride": 16,
      "name": "floatBufferViews",
      "target": 34962
    },
    {
      "buffer": 0,
      "byteLength": 640,
      "byteOffset": 98120,
      "name": "floatBufferViews"
    }
  ],
  "buffers": [
    {
      "byteLength": 98760,
      "uri": "scene.bin"
    }
  ],
  "images": [
    {
      "uri": "textures/ScoutSlingshot_baseColor.png"
    }
  ],
  "materials": [
    {
      "doubleSided": true,
      "name": "ScoutSlingshot",
      "pbrMetallicRoughness": {
        "baseColorTexture": {
          "index": 0
        },
        "metallicFactor": 0.0,
        "roughnessFactor": 0.9577051494623774
      }
    }
  ],
  "meshes": [
    {
      "name": "ScoutSlingshot_ScoutSlingshot_0",
      "primitives": [
        {
          "attributes": {
            "JOINTS_0": 5,
            "NORMAL": 1,
            "POSITION": 0,
            "TEXCOORD_0": 2,
            "WEIGHTS_0": 6
          },
          "indices": 3,
          "material": 0,
          "mode": 4
        }
      ]
    }
  ],
  "nodes": [
    {
      "children": [
        1
      ],
      "matrix": [
        1.0,
        0.0,
        0.0,
        0.0,
        0.0,
        2.220446049250313e-16,
        -1.0,
        0.0,
        0.0,
        1.0,
        2.220446049250313e-16,
        0.0,
        0.0,
        0.0,
        0.0,
        1.0
      ],
      "name": "Sketchfab_model"
    },
    {
      "children": [
        2
      ],
      "matrix": [
        1.0,
        0.0,
        0.0,
        0.0,
        0.0,
        0.0,
        1.0,
        0.0,
        0.0,
        -1.0,
        0.0,
        0.0,
        0.0,
        0.0,
        0.0,
        1.0
      ],
      "name": "64ce75795d6249e2b3a672b59eda76b8.fbx"
    },
    {
      "children": [
        3
      ],
      "name": "RootNode"
    },
    {
      "children": [
        4
      ],
      "name": "Item_Slingshot"
    },
    {
      "children": [
        5,
        7,
        6
      ],
      "name": "Object_4"
    },
    {
      "children": [
        8
      ],
      "name": "_rootJoint"
    },
    {
      "matrix": [
        1.0,
        0.0,
        0.0,
        0.0,
        0.0,
        0.9999999999999999,
        0.0,
        0.0,
        0.0,
        0.0,
        0.9999999999999999,
        0.0,
        0.0,
        0.0,
        0.0,
        1.0
      ],
      "name": "Object_6"
    },
    {
      "mesh": 0,
      "name": "Object_7",
      "skin": 0
    },
    {
      "children": [
        9,
        16,
        17
      ],
      "name": "Visual_00"
    },
    {
      "children": [
        10,
        14,
        15
      ],
      "name": "sling_root_01"
    },
    {
      "children": [
        11,
        12,
        13
      ],
      "name": "IK_pivot_02",
      "rotation": [
        -0.20234085619449615,
        -0.06870558857917786,
        0.06164364516735077,
        0.9749553799629211
      ],
      "translation": [
        0.02994016744196415,
        0.15590503811836243,
        -0.10103301703929901
      ]
    },
    {
      "name": "sling_l_rubber_top_03",
      "rotation": [
        -0.0398014560341835,
        -0.06442395597696304,
        0.0025715597439557314,
        0.9971252679824829
      ],
      "translation": [
        0.04854102060198784,
        0.0017258776351809502,
        0.007974413223564625
      ]
    },
    {
      "name": "sling_r_rubber_top_04",
      "rotation": [
        0.9951932430267334,
        2.5358123304680746e-17,
        -0.09793055802583694,
        6.284326032859316e-17
      ],
      "translation": [
        -0.04864884167909622,
        0.0017258776351809502,
        0.007974413223564625
      ]
    },
    {
      "name": "sling_rubber_jnt_05",
      "rotation": [
        -5.551115123125783e-17,
        6.938893903907228e-18,
        -3.469446951953614e-18,
        1.0
      ],
      "translation": [
        1.3877787807814457e-17,
        -5.551115123125783e-17,
        -5.551115123125783e-17
      ]
    },
    {
      "name": "sling_l_rubber_rotator_06",
      "rotation": [
        0.9848078489303589,
        1.0632885650583262e-17,
        -0.17364820837974548,
        6.030208869493636e-17
      ],
      "translation": [
        0.10915663838386536,
        0.2380705177783966,
        -0.003265635808929801
      ]
    },
    {
      "name": "sling_r_rubber_rotator_07",
      "rotation": [
        0.9848078489303589,
        -1.0632885650583262e-17,
        0.17364820837974548,
        6.030208869493636e-17
      ],
      "translation": [
        -0.08814124763011932,
        0.2380705177783966,
        -0.003265635808929801
      ]
    },
    {
      "name": "ScoutSlingshot"
    },
    {
      "name": "ProjectileLaunchPoint_08",
      "translation": [
        0.0,
        0.09449999779462814,
        -0.05050000175833702
      ]
    }
  ],
  "samplers": [
    {
      "magFilter": 9729,
      "minFilter": 9987,
      "wrapS": 10497,
      "wrapT": 10497
    }
  ],
  "scene": 0,
  "scenes": [
    {
      "name": "Sketchfab_Scene",
      "nodes": [
        0
      ]
    }
  ],
  "skins": [
    {
      "inverseBindMatrices": 4,
      "joints": [
        5,
        8,
        9,
        10,
        11,
        12,
        13,
        14,
        15,
        17
      ],
      "skeleton": 5
    }
  ],
  "textures": [
    {
      "sampler": 0,
      "source": 0
    }
  ]
}
